<svg width="135" height="39" viewBox="0 0 135 39" fill="none" xmlns="http://www.w3.org/2000/svg">
<path d="M55 0H20.073L37.3358 39L55 0Z" fill="#EAA508"/>
<path d="M-3.8147e-06 39H34.927L17.6642 0L-3.8147e-06 39Z" fill="#080051"/>
<path d="M73.3733 12.54C74.8399 12.54 76.1266 12.8267 77.2333 13.4C78.3533 13.9733 79.2133 14.7933 79.8133 15.86C80.4266 16.9133 80.7333 18.14 80.7333 19.54C80.7333 20.94 80.4266 22.1667 79.8133 23.22C79.2133 24.26 78.3533 25.0667 77.2333 25.64C76.1266 26.2133 74.8399 26.5 73.3733 26.5H68.4933V12.54H73.3733ZM73.2733 24.12C74.7399 24.12 75.8733 23.72 76.6733 22.92C77.4733 22.12 77.8733 20.9933 77.8733 19.54C77.8733 18.0867 77.4733 16.9533 76.6733 16.14C75.8733 15.3133 74.7399 14.9 73.2733 14.9H71.2933V24.12H73.2733ZM91.3892 23.84H85.8292L84.9092 26.5H81.9692L86.9892 12.52H90.2492L95.2692 26.5H92.3092L91.3892 23.84ZM90.6292 21.6L88.6092 15.76L86.5892 21.6H90.6292ZM106.646 12.54V14.8H102.926V26.5H100.126V14.8H96.4056V12.54H106.646ZM117.249 23.84H111.689L110.769 26.5H107.829L112.849 12.52H116.109L121.129 26.5H118.169L117.249 23.84ZM116.489 21.6L114.469 15.76L112.449 21.6H116.489ZM130.885 26.5L125.805 20.28V26.5H123.005V12.54H125.805V18.8L130.885 12.54H134.265L128.505 19.46L134.425 26.5H130.885Z" fill="#080051"/>
</svg>
